<?xml version="1.0" encoding="UTF-8" standalone="no"?>
<!-- Created with Inkscape (http://www.inkscape.org/) -->

<svg
   xmlns:dc="http://purl.org/dc/elements/1.1/"
   xmlns:cc="http://creativecommons.org/ns#"
   xmlns:rdf="http://www.w3.org/1999/02/22-rdf-syntax-ns#"
   xmlns:svg="http://www.w3.org/2000/svg"
   xmlns="http://www.w3.org/2000/svg"
   xmlns:sodipodi="http://sodipodi.sourceforge.net/DTD/sodipodi-0.dtd"
   xmlns:inkscape="http://www.inkscape.org/namespaces/inkscape"
   width="69.498825mm"
   height="62.431828mm"
   viewBox="0 0 69.498825 62.431828"
   version="1.1"
   id="svg1649"
   inkscape:version="0.92.2 2405546, 2018-03-11"
   sodipodi:docname="sqla-filters-yaml.svg">
  <defs
     id="defs1643" />
  <sodipodi:namedview
     id="base"
     pagecolor="#ffffff"
     bordercolor="#666666"
     borderopacity="1.0"
     inkscape:pageopacity="0.0"
     inkscape:pageshadow="2"
     inkscape:zoom="1.979899"
     inkscape:cx="-8.752976"
     inkscape:cy="79.851763"
     inkscape:document-units="mm"
     inkscape:current-layer="layer1"
     showgrid="false"
     fit-margin-top="1"
     fit-margin-left="1"
     fit-margin-right="1"
     fit-margin-bottom="1"
     inkscape:window-width="1920"
     inkscape:window-height="1016"
     inkscape:window-x="1920"
     inkscape:window-y="27"
     inkscape:window-maximized="1" />
  <metadata
     id="metadata1646">
    <rdf:RDF>
      <cc:Work
         rdf:about="">
        <dc:format>image/svg+xml</dc:format>
        <dc:type
           rdf:resource="http://purl.org/dc/dcmitype/StillImage" />
        <dc:title></dc:title>
      </cc:Work>
    </rdf:RDF>
  </metadata>
  <g
     inkscape:label="Layer 1"
     inkscape:groupmode="layer"
     id="layer1"
     transform="translate(-71.839876,-121.39719)">
    <path
       style="display:inline;fill:#000000;fill-opacity:1;stroke:none;stroke-width:3.00442004;stroke-linejoin:round;stroke-miterlimit:4;stroke-dasharray:none;stroke-opacity:1"
       d="m 109.34919,122.39719 a 9.4661188,15.881298 0 0 0 -9.464864,15.88132 h 0.473334 a 8.9928123,15.087233 0 0 1 8.99163,-15.08722 8.9928123,15.087233 0 0 1 8.99397,15.08311 h 8e-5 a 9.4661188,15.881298 0 0 0 3.3983,12.15244 9.4661188,15.881298 0 0 0 7.73337,3.4441 l -0.0832,-0.78179 a 8.9928123,15.087233 0 0 1 -7.34673,-3.27176 8.9928123,15.087233 0 0 1 -3.22836,-11.54495 h -1.6e-4 a 9.4661188,15.881298 0 0 0 -9.46732,-15.87525 z"
       id="path2204"
       inkscape:connector-curvature="0" />
    <path
       style="display:inline;fill:#d71f00;fill-opacity:1;stroke:#000000;stroke-width:0.30000001;stroke-linecap:butt;stroke-linejoin:miter;stroke-miterlimit:4;stroke-dasharray:none;stroke-opacity:1"
       d="M 100.11234,182.60173 V 138.08558 L 73.082556,171.04237 Z"
       id="path2206"
       inkscape:connector-curvature="0" />
    <path
       style="display:inline;fill:#d71f00;fill-opacity:1;stroke:#000000;stroke-width:0.30000001;stroke-linecap:butt;stroke-linejoin:miter;stroke-miterlimit:4;stroke-dasharray:none;stroke-opacity:1"
       d="m 127.14211,171.04237 -27.02977,11.55936 v -44.51615 z"
       id="path2208"
       inkscape:connector-curvature="0" />
    <path
       inkscape:connector-curvature="0"
       id="path2210"
       d="m 129.49231,148.49633 h 10.69639 v 9.94044 h -10.69639 z"
       style="fill:#d71f00;fill-opacity:1;stroke:#000000;stroke-width:0.30000001;stroke-linejoin:round;stroke-miterlimit:4;stroke-dasharray:none;stroke-opacity:1" />
    <g
       aria-label="YAML"
       transform="matrix(0.26458333,0,0,0.26458333,122.88837,97.209286)"
       style="font-style:normal;font-weight:normal;font-size:40px;line-height:1.25;font-family:sans-serif;letter-spacing:0px;word-spacing:0px;fill:#000000;fill-opacity:1;stroke:none"
       id="flowRoot894">
      <path
         d="m -127.63829,243.91697 q 0.912,0 1.488,0.672 0.624,0.672 0.624,1.632 0,0.816 -0.48,1.584 l -12.912,19.92 v 11.184 q 0,1.056 -0.72,1.776 -0.72,0.72 -1.776,0.72 -1.008,0 -1.728,-0.72 -0.72,-0.72 -0.72,-1.776 v -11.184 l -12.816,-19.92 q -0.528,-0.816 -0.528,-1.536 0,-1.008 0.72,-1.68 0.768,-0.672 1.776,-0.672 0.768,0 1.248,0.336 0.48,0.336 0.96,1.056 l 11.232,17.808 11.424,-18 q 0.768,-1.2 2.208,-1.2 z"
         style="font-style:normal;font-variant:normal;font-weight:bold;font-stretch:normal;font-size:48px;font-family:Comfortaa;-inkscape-font-specification:'Comfortaa Bold';text-align:center;text-anchor:middle;fill:#ffffff"
         id="path2214"
         inkscape:connector-curvature="0" />
      <path
         d="m -97.239289,277.90097 q 0.24,0.624 0.24,1.056 0,1.008 -0.72,1.728 -0.72,0.72 -1.776,0.72 -0.720001,0 -1.392001,-0.384 -0.624,-0.432 -0.912,-1.152 l -2.688,-6.72 h -17.232 l -2.736,6.72 q -0.336,0.72 -0.96,1.152 -0.624,0.384 -1.344,0.384 -1.056,0 -1.776,-0.72 -0.672,-0.768 -0.672,-1.776 0,-0.48 0.24,-1.104 l 13.488,-32.208 q 0.72,-1.68 2.352,-1.68 1.728,0 2.352,1.68 z m -22.800001,-8.88 h 13.872 l -6.864,-17.088 z"
         style="font-style:normal;font-variant:normal;font-weight:bold;font-stretch:normal;font-size:48px;font-family:Comfortaa;-inkscape-font-specification:'Comfortaa Bold';text-align:center;text-anchor:middle;fill:#ffffff"
         id="path2216"
         inkscape:connector-curvature="0" />
      <path
         d="m -56.481289,243.91697 q 1.056,0 1.776,0.72 0.72,0.72 0.72,1.776 v 32.496 q 0,1.056 -0.768,1.776 -0.72,0.72 -1.728,0.72 -1.056,0 -1.776,-0.72 -0.72,-0.72 -0.72,-1.776 v -23.856 l -11.616,23.664 q -0.816,1.248 -2.16,1.248 -1.584,0 -2.304,-1.488 l -11.472,-22.992 v 23.424 q 0,1.056 -0.72,1.776 -0.72,0.72 -1.776,0.72 -1.056,0 -1.776,-0.72 -0.72,-0.72 -0.72,-1.776 v -32.496 q 0,-1.056 0.72,-1.776 0.72,-0.72 1.776,-0.72 1.44,0 2.208,1.344 l 14.256,28.56 13.872,-28.56 q 0.768,-1.344 2.208,-1.344 z"
         style="font-style:normal;font-variant:normal;font-weight:bold;font-stretch:normal;font-size:48px;font-family:Comfortaa;-inkscape-font-specification:'Comfortaa Bold';text-align:center;text-anchor:middle;fill:#ffffff"
         id="path2218"
         inkscape:connector-curvature="0" />
      <path
         d="m -41.917039,281.40497 q -1.056,0 -1.776,-0.72 -0.672,-0.72 -0.672,-1.776 v -32.496 q 0,-1.056 0.72,-1.776 0.72,-0.72 1.728,-0.72 1.056,0 1.776,0.72 0.72,0.72 0.72,1.776 v 30 h 17.376 q 1.056,0 1.776,0.72 0.72,0.72 0.72,1.776 0,1.056 -0.72,1.776 -0.72,0.72 -1.776,0.72 z"
         style="font-style:normal;font-variant:normal;font-weight:bold;font-stretch:normal;font-size:48px;font-family:Comfortaa;-inkscape-font-specification:'Comfortaa Bold';text-align:center;text-anchor:middle;fill:#ffffff"
         id="path2220"
         inkscape:connector-curvature="0" />
    </g>
  </g>
</svg>
